<svg width="106" height="40" viewBox="0 0 106 40" fill="none" xmlns="http://www.w3.org/2000/svg">
<path d="M37.9512 26.5796V13.3833H43.7465C45.2476 13.3833 46.398 13.7955 47.1978 14.6199C47.9853 15.432 48.379 16.4348 48.379 17.6283C48.379 18.8833 47.9853 19.8922 47.1978 20.6551C46.4103 21.418 45.3337 21.7994 43.9679 21.7994H40.7196V26.5796H37.9512ZM40.7196 15.7088V19.6216H43.4881C44.1771 19.6216 44.7062 19.4493 45.0753 19.1048C45.4445 18.748 45.629 18.2619 45.629 17.6467C45.629 17.0315 45.4445 16.5578 45.0753 16.2256C44.7062 15.8811 44.1894 15.7088 43.525 15.7088H40.7196Z" fill="white"/>
<path d="M55.1006 26.5796C54.9776 26.4197 54.8791 26.069 54.8053 25.5276H54.7684C54.4977 25.9336 54.1532 26.2474 53.7348 26.4689C53.3165 26.6903 52.732 26.8011 51.9815 26.8011C50.9848 26.8011 50.1851 26.5488 49.5821 26.0444C48.9792 25.5399 48.6778 24.8263 48.6778 23.9034C48.6778 22.9437 49.01 22.2424 49.6744 21.7994C50.3389 21.3442 51.274 21.0304 52.4798 20.8581C53.3657 20.7351 53.9686 20.612 54.2885 20.489C54.6084 20.3537 54.7684 20.1199 54.7684 19.7877C54.7684 19.4431 54.633 19.1724 54.3623 18.9756C54.0917 18.7664 53.6979 18.6618 53.1811 18.6618C52.0368 18.6618 51.4278 19.1048 51.354 19.9907H49.1207C49.1577 19.0925 49.5206 18.3481 50.2097 17.7575C50.8987 17.1669 51.8953 16.8716 53.1996 16.8716C55.8573 16.8716 57.1862 18.0343 57.1862 20.3598V25.1769C57.1862 25.8906 57.2969 26.3274 57.5184 26.4873V26.5796H55.1006ZM52.5905 25.0477C53.2796 25.0477 53.821 24.8693 54.2147 24.5125C54.6207 24.1557 54.8238 23.7312 54.8238 23.239V21.8179C54.5531 21.9778 53.9686 22.1624 53.0704 22.3716C52.3568 22.5315 51.8523 22.7161 51.557 22.9252C51.2617 23.1221 51.114 23.4297 51.114 23.8481C51.114 24.6478 51.6062 25.0477 52.5905 25.0477Z" fill="white"/>
<path d="M61.1997 17.1115V18.6249H61.2551C61.5504 18.0712 61.8764 17.6652 62.2333 17.4068C62.5901 17.1361 63.0392 17.0007 63.5806 17.0007C63.839 17.0007 64.0358 17.0254 64.1712 17.0746V19.2709H64.1158C63.2668 19.1848 62.5839 19.3693 62.0672 19.8246C61.5504 20.2798 61.292 20.9935 61.292 21.9655V26.5796H58.7819V17.1115H61.1997Z" fill="white"/>
<path d="M64.7889 18.7726V17.1115H66.0993V14.1585H68.554V17.1115H70.1782V18.7726H68.554V23.7927C68.554 24.4202 68.8678 24.734 69.4953 24.734L70.2335 24.7155V26.5612C69.8521 26.5858 69.3292 26.5981 68.6647 26.5981C67.9388 26.5981 67.3297 26.4258 66.8376 26.0813C66.3454 25.7245 66.0993 25.14 66.0993 24.3279V18.7726H64.7889Z" fill="white"/>
<path d="M73.9254 17.1115V18.4034H73.9808C74.6329 17.3699 75.568 16.8531 76.7861 16.8531C77.7582 16.8531 78.5456 17.1853 79.1485 17.8497C79.7514 18.5019 80.0529 19.3509 80.0529 20.3967V26.5796H77.5428V20.7659C77.5428 20.2491 77.3952 19.8307 77.0999 19.5108C76.8169 19.1909 76.417 19.031 75.9002 19.031C75.3465 19.031 74.8851 19.234 74.516 19.64C74.1592 20.0461 73.9808 20.569 73.9808 21.2088V26.5796H71.4707V17.1115H73.9254Z" fill="white"/>
<path d="M86.0481 26.8565C84.5223 26.8565 83.3227 26.3889 82.4491 25.4538C81.5755 24.5063 81.1387 23.3005 81.1387 21.8363C81.1387 20.4213 81.5755 19.2401 82.4491 18.2927C83.3227 17.333 84.4424 16.8531 85.8081 16.8531C87.2969 16.8531 88.4474 17.3699 89.2595 18.4034C90.0716 19.437 90.4776 20.8212 90.4776 22.5561H83.6118C83.7102 23.3067 83.9625 23.8911 84.3685 24.3095C84.7746 24.7155 85.3283 24.9185 86.0296 24.9185C86.9524 24.9185 87.5615 24.531 87.8568 23.7558H90.3299C90.1454 24.6417 89.6778 25.3799 88.9272 25.9705C88.1767 26.5612 87.217 26.8565 86.0481 26.8565ZM85.845 18.791C84.6269 18.791 83.8948 19.4678 83.6487 20.8212H87.8568C87.8199 20.2183 87.6169 19.7323 87.2477 19.3632C86.8786 18.9817 86.411 18.791 85.845 18.791Z" fill="white"/>
<path d="M94.0571 17.1115V18.6249H94.1125C94.4078 18.0712 94.7338 17.6652 95.0907 17.4068C95.4475 17.1361 95.8966 17.0007 96.438 17.0007C96.6964 17.0007 96.8932 17.0254 97.0286 17.0746V19.2709H96.9732C96.1242 19.1848 95.4413 19.3693 94.9246 19.8246C94.4078 20.2798 94.1494 20.9935 94.1494 21.9655V26.5796H91.6393V17.1115H94.0571Z" fill="white"/>
<path d="M101.949 26.8565C100.595 26.8565 99.5372 26.5612 98.7743 25.9705C98.0114 25.3676 97.5931 24.5494 97.5193 23.5159H99.8448C100.005 24.5617 100.694 25.0846 101.912 25.0846C102.466 25.0846 102.89 24.9862 103.185 24.7893C103.493 24.5925 103.647 24.3279 103.647 23.9957C103.647 23.8727 103.622 23.7619 103.573 23.6635C103.536 23.5651 103.462 23.4789 103.351 23.4051C103.253 23.319 103.161 23.2513 103.075 23.2021C103.001 23.1529 102.865 23.1037 102.669 23.0544C102.472 23.0052 102.318 22.9683 102.207 22.9437C102.109 22.9191 101.93 22.8883 101.672 22.8514C101.426 22.8022 101.254 22.7653 101.155 22.7407C100.638 22.6422 100.214 22.5438 99.8817 22.4454C99.5618 22.3346 99.2234 22.1808 98.8666 21.984C98.5098 21.7748 98.2391 21.498 98.0545 21.1534C97.8822 20.7966 97.7961 20.3721 97.7961 19.8799C97.7961 18.8956 98.1529 18.145 98.8666 17.6283C99.5925 17.1115 100.522 16.8531 101.653 16.8531C102.872 16.8531 103.825 17.1361 104.514 17.7021C105.216 18.2558 105.615 19.0186 105.714 19.9907H103.444C103.345 19.0679 102.736 18.6065 101.617 18.6065C101.112 18.6065 100.712 18.6987 100.417 18.8833C100.134 19.0679 99.9924 19.3263 99.9924 19.6585C99.9924 19.7692 100.011 19.8738 100.048 19.9722C100.097 20.0584 100.171 20.1383 100.269 20.2122C100.38 20.2737 100.485 20.3291 100.583 20.3783C100.681 20.4152 100.823 20.4582 101.008 20.5075C101.192 20.5444 101.352 20.5813 101.487 20.6182C101.623 20.6428 101.807 20.6797 102.041 20.7289C102.275 20.7659 102.459 20.7966 102.595 20.8212C102.989 20.9073 103.308 20.9873 103.555 21.0612C103.813 21.1227 104.108 21.2334 104.44 21.3934C104.773 21.541 105.031 21.7133 105.216 21.9101C105.412 22.0947 105.579 22.3531 105.714 22.6853C105.862 23.0052 105.935 23.3805 105.935 23.8112C105.935 24.7463 105.566 25.4907 104.828 26.0444C104.102 26.5858 103.142 26.8565 101.949 26.8565Z" fill="white"/>
<path d="M6 26.5799V13.3836H8.67617V26.5799H6Z" fill="white"/>
<path d="M14.45 26.8568C13.0473 26.8568 11.9645 26.5184 11.2017 25.8417C10.4388 25.1526 10.0574 24.2667 10.0574 23.184C10.0574 21.5475 11.0294 20.2371 12.9735 19.2528C12.2352 18.3546 11.8661 17.444 11.8661 16.5212C11.8661 15.6476 12.1799 14.9217 12.8074 14.3434C13.4472 13.7651 14.2716 13.4759 15.2805 13.4759C16.2895 13.4759 17.1139 13.7589 17.7537 14.3249C18.4058 14.8786 18.7319 15.6046 18.7319 16.5028C18.7319 17.2656 18.535 17.887 18.1413 18.3669C17.7475 18.8344 17.1569 19.2712 16.3695 19.6773L18.1228 21.9474C18.3935 21.2584 18.5658 20.5447 18.6396 19.8065H20.8728C20.7621 21.3445 20.3437 22.7041 19.6178 23.8853L21.7033 26.5799H18.6396L17.9567 25.7125C16.9231 26.4754 15.7542 26.8568 14.45 26.8568ZM14.5423 24.7897C15.3297 24.7897 16.0311 24.5313 16.6463 24.0145L14.2285 20.8585C13.2196 21.4737 12.7151 22.2242 12.7151 23.1101C12.7151 23.6023 12.8874 24.0084 13.2319 24.3283C13.5887 24.6359 14.0255 24.7897 14.5423 24.7897ZM14.2839 16.5581C14.2839 17.0749 14.6038 17.6409 15.2436 18.2561C15.9819 17.8132 16.351 17.241 16.351 16.5397C16.351 16.2321 16.2464 15.9798 16.0372 15.783C15.8404 15.5861 15.6004 15.4877 15.3174 15.4877C15.0221 15.4877 14.7761 15.5922 14.5792 15.8014C14.3823 15.9983 14.2839 16.2505 14.2839 16.5581Z" fill="white"/>
<path d="M33.1531 24.9558C31.9965 26.2354 30.4584 26.8752 28.539 26.8752C26.6195 26.8752 25.0753 26.2354 23.9064 24.9558C22.7498 23.6638 22.1715 22.0151 22.1715 20.0095C22.1715 18.0039 22.7498 16.3551 23.9064 15.0632C25.0753 13.7712 26.6195 13.1252 28.539 13.1252C30.4584 13.1252 31.9965 13.7712 33.1531 15.0632C34.3097 16.3551 34.888 18.0039 34.888 20.0095C34.888 22.0151 34.3097 23.6638 33.1531 24.9558ZM25.8444 23.3685C26.4842 24.2421 27.3885 24.6789 28.5574 24.6789C29.7263 24.6789 30.6184 24.2483 31.2336 23.387C31.8488 22.5134 32.1564 21.3875 32.1564 20.0095C32.1564 18.6314 31.8488 17.5056 31.2336 16.632C30.6184 15.7584 29.7263 15.3216 28.5574 15.3216C27.3885 15.3216 26.4842 15.7584 25.8444 16.632C25.2168 17.5056 24.9031 18.6314 24.9031 20.0095C24.9031 21.3752 25.2168 22.4949 25.8444 23.3685Z" fill="white"/>
<path fill-rule="evenodd" clip-rule="evenodd" d="M2 2H38V7.5H40V2V0H38H2H0V2V38V40H2H38H40V38V32.5H38V38H2V2Z" fill="white"/>
</svg>
